<svg xmlns="http://www.w3.org/2000/svg" xmlns:xlink="http://www.w3.org/1999/xlink" width="900" zoomAndPan="magnify" viewBox="0 0 675 374.999991" height="500" preserveAspectRatio="xMidYMid meet" version="1.0"><defs><g/></defs><g fill="#08d658" fill-opacity="1"><g transform="translate(-21.932176, 358.60483)"><g><path d="M 208.09375 2.984375 C 173.570312 2.984375 142.457031 -4.644531 114.75 -19.90625 C 87.039062 -35.175781 65.300781 -56.332031 49.53125 -83.375 C 33.769531 -110.425781 25.890625 -140.710938 25.890625 -174.234375 C 25.890625 -207.753906 33.769531 -238.039062 49.53125 -265.09375 C 65.300781 -292.144531 87.125 -313.300781 115 -328.5625 C 142.875 -343.832031 174.070312 -351.46875 208.59375 -351.46875 C 234.476562 -351.46875 258.375 -347.148438 280.28125 -338.515625 C 302.1875 -329.890625 320.769531 -317.28125 336.03125 -300.6875 L 312.640625 -277.296875 C 285.421875 -304.835938 251.066406 -318.609375 209.578125 -318.609375 C 182.035156 -318.609375 156.976562 -312.300781 134.40625 -299.6875 C 111.84375 -287.082031 94.171875 -269.828125 81.390625 -247.921875 C 68.617188 -226.015625 62.234375 -201.453125 62.234375 -174.234375 C 62.234375 -147.023438 68.617188 -122.46875 81.390625 -100.5625 C 94.171875 -78.65625 111.84375 -61.394531 134.40625 -48.78125 C 156.976562 -36.175781 182.035156 -29.875 209.578125 -29.875 C 251.398438 -29.875 285.753906 -43.8125 312.640625 -71.6875 L 336.03125 -48.296875 C 320.769531 -31.691406 302.101562 -18.992188 280.03125 -10.203125 C 257.957031 -1.410156 233.976562 2.984375 208.09375 2.984375 Z M 208.09375 2.984375 "/></g></g></g></svg>