<svg xmlns="http://www.w3.org/2000/svg" xmlns:xlink="http://www.w3.org/1999/xlink" width="500" zoomAndPan="magnify" viewBox="0 0 375 374.999991" height="500" preserveAspectRatio="xMidYMid meet" version="1.0"><defs><filter x="0%" y="0%" width="100%" height="100%" id="90b41a19dc"><feColorMatrix values="0 0 0 0 1 0 0 0 0 1 0 0 0 0 1 0 0 0 1 0" color-interpolation-filters="sRGB"/></filter><mask id="56dde7923e"><g filter="url(#90b41a19dc)"><rect x="-37.5" width="450" fill="#000000" y="-37.499999" height="449.999989" fill-opacity="0.8784"/></g></mask><clipPath id="204bdff493"><rect x="0" width="375" y="0" height="375"/></clipPath><clipPath id="36ab0a997a"><path d="M 49.003906 49.003906 L 325.753906 49.003906 L 325.753906 325.753906 L 49.003906 325.753906 Z M 49.003906 49.003906 " clip-rule="nonzero"/></clipPath></defs><g mask="url(#56dde7923e)"><g transform="matrix(1, 0, 0, 1, 0, 0)"><g clip-path="url(#204bdff493)"><path fill="#ededed" d="M 187.5 0 C 83.945312 0 0 83.945312 0 187.5 C 0 291.054688 83.945312 375 187.5 375 C 291.054688 375 375 291.054688 375 187.5 C 375 83.945312 291.054688 0 187.5 0 " fill-opacity="1" fill-rule="nonzero"/></g></g></g><g clip-path="url(#36ab0a997a)"><path fill="#078beb" d="M 187.378906 49.003906 C 110.957031 49.003906 49.003906 110.957031 49.003906 187.378906 C 49.003906 263.804688 110.957031 325.753906 187.378906 325.753906 C 263.804688 325.753906 325.753906 263.804688 325.753906 187.378906 C 325.753906 110.957031 263.804688 49.003906 187.378906 49.003906 " fill-opacity="1" fill-rule="nonzero"/></g></svg>