<svg xmlns="http://www.w3.org/2000/svg" xmlns:xlink="http://www.w3.org/1999/xlink" width="1300" zoomAndPan="magnify" viewBox="0 0 974.88 374.999991" height="500" preserveAspectRatio="xMidYMid meet" version="1.0"><defs><clipPath id="131a4f5c76"><path d="M 0 0.324219 L 281.957031 0.324219 L 281.957031 374.683594 L 0 374.683594 Z M 0 0.324219 " clip-rule="nonzero"/></clipPath></defs><g clip-path="url(#131a4f5c76)"><path fill="#737373" d="M 129.652344 204.585938 C 92.425781 197.597656 67.898438 161.722656 74.882812 124.472656 C 81.863281 87.222656 117.714844 62.683594 154.9375 69.667969 C 192.164062 76.65625 216.691406 112.53125 209.710938 149.78125 C 202.726562 187.027344 166.875 211.574219 129.652344 204.585938 Z M 279.914062 165.96875 C 291.046875 106.574219 257.113281 19.460938 168.363281 2.800781 C 79.511719 -13.875 15.445312 56.867188 3.34375 115.769531 C -1.664062 140.113281 -6.234375 154.824219 30.675781 253.242188 C 45.882812 293.765625 60.367188 329.054688 72.753906 357.828125 C 80.421875 375.65625 103.441406 380.351562 117.5 367.015625 C 140.917969 344.753906 168.921875 317.40625 199.78125 285.5625 C 273.957031 209.054688 274.320312 195.984375 279.914062 165.96875 " fill-opacity="1" fill-rule="nonzero"/></g></svg>